<svg width="191" height="191" viewBox="0 0 191 191" fill="none" xmlns="http://www.w3.org/2000/svg">
<path d="M158.743 98.8065L159.45 94.3625L181.145 106.112L180.327 111.252L156.054 115.696L156.762 111.252L176.009 108.022L176.037 107.842L158.743 98.8065ZM167.731 100.387L165.802 112.507L162.457 111.975L164.387 99.8545L167.731 100.387Z" fill="#3215E0"/>
<path d="M155.636 116.138L176.416 126.618L172.404 134.573C171.646 136.075 170.78 137.203 169.805 137.959C168.834 138.724 167.818 139.15 166.757 139.234C165.693 139.325 164.647 139.111 163.618 138.593C162.773 138.166 162.131 137.639 161.693 137.011C161.261 136.386 160.998 135.706 160.902 134.97C160.806 134.235 160.848 133.488 161.026 132.729L160.824 132.627C160.411 133.344 159.828 133.937 159.074 134.405C158.324 134.883 157.467 135.151 156.505 135.209C155.543 135.267 154.534 135.03 153.479 134.497C152.403 133.955 151.567 133.207 150.971 132.253C150.381 131.302 150.104 130.178 150.139 128.88C150.174 127.583 150.592 126.139 151.394 124.55L155.636 116.138ZM156.883 121.489L154.841 125.537C154.152 126.904 153.916 128.019 154.133 128.884C154.354 129.759 154.877 130.404 155.702 130.821C156.318 131.131 156.949 131.259 157.596 131.203C158.25 131.151 158.861 130.916 159.428 130.498C160.002 130.083 160.485 129.487 160.878 128.709L162.971 124.559L156.883 121.489ZM165.68 125.926L163.802 129.649C163.474 130.299 163.298 130.943 163.272 131.584C163.252 132.227 163.388 132.809 163.677 133.328C163.97 133.858 164.421 134.276 165.03 134.583C165.835 134.989 166.641 135.039 167.448 134.734C168.252 134.435 168.934 133.731 169.493 132.622L171.412 128.817L165.68 125.926Z" fill="#3215E0"/>
<path d="M140.997 155.704C139.211 153.944 138.011 152.102 137.397 150.178C136.783 148.264 136.706 146.401 137.164 144.587C137.617 142.778 138.558 141.148 139.989 139.696C141.419 138.245 143.038 137.277 144.845 136.793C146.653 136.319 148.52 136.372 150.447 136.953C152.375 137.544 154.229 138.717 156.009 140.472C157.795 142.232 158.995 144.069 159.609 145.982C160.223 147.906 160.304 149.773 159.851 151.581C159.392 153.395 158.448 155.028 157.018 156.479C155.587 157.931 153.971 158.896 152.169 159.375C150.362 159.86 148.495 159.806 146.567 159.215C144.64 158.635 142.783 157.464 140.997 155.704ZM143.972 152.685C145.23 153.924 146.484 154.772 147.735 155.229C148.987 155.697 150.174 155.803 151.298 155.549C152.426 155.299 153.434 154.724 154.322 153.823C155.21 152.922 155.771 151.906 156.004 150.774C156.242 149.647 156.121 148.458 155.64 147.208C155.16 145.969 154.291 144.73 153.034 143.491C151.777 142.252 150.522 141.398 149.271 140.931C148.019 140.474 146.829 140.37 145.701 140.619C144.578 140.874 143.572 141.452 142.684 142.353C141.796 143.254 141.233 144.268 140.995 145.394C140.762 146.526 140.885 147.712 141.366 148.951C141.846 150.201 142.715 151.446 143.972 152.685Z" fill="#3215E0"/>
<path d="M129.454 175.17L125.689 177.068L118.843 163.493C118.092 162.004 117.784 160.518 117.918 159.034C118.045 157.553 118.58 156.175 119.524 154.902C120.472 153.635 121.791 152.575 123.482 151.722C125.18 150.866 126.82 150.433 128.402 150.424C129.988 150.422 131.414 150.81 132.68 151.588C133.947 152.367 134.955 153.5 135.706 154.988L142.552 168.564L138.788 170.462L132.1 157.201C131.663 156.335 131.085 155.659 130.365 155.174C129.639 154.692 128.83 154.434 127.938 154.4C127.051 154.372 126.13 154.599 125.176 155.08C124.222 155.561 123.493 156.167 122.987 156.897C122.478 157.637 122.205 158.441 122.167 159.309C122.129 160.176 122.329 161.043 122.766 161.909L129.454 175.17Z" fill="#3215E0"/>
<path d="M117.663 176.041L118.218 179.531L99.8809 182.45L99.3253 178.96L106.429 177.829L103.326 158.336L107.456 157.678L110.559 177.172L117.663 176.041Z" fill="#3215E0"/>
<path d="M67.454 165.232L68.4628 161.999L78.4644 165.12L77.4556 168.353L67.454 165.232Z" fill="#3215E0"/>
<path d="M60.669 149.209L64.1888 152.013L43.2798 165.111L39.2089 161.868L47.2922 138.553L50.812 141.357L44.147 159.7L44.2892 159.813L60.669 149.209ZM54.8679 156.254L45.2686 148.607L47.3786 145.958L56.9779 153.605L54.8679 156.254Z" fill="#3215E0"/>
<path d="M47.1121 137.971L27.8039 150.964L22.8301 143.573C21.8912 142.177 21.3308 140.87 21.149 139.65C20.9568 138.428 21.0833 137.333 21.5288 136.367C21.9701 135.394 22.6684 134.587 23.6237 133.944C24.4094 133.415 25.1834 133.113 25.9458 133.039C26.7019 132.968 27.4241 133.071 28.1124 133.348C28.8006 133.624 29.4317 134.026 30.0055 134.553L30.194 134.426C29.7707 133.716 29.5393 132.917 29.4997 132.031C29.4497 131.142 29.635 130.264 30.0557 129.396C30.4764 128.529 31.177 127.765 32.1574 127.106C33.1568 126.433 34.2184 126.07 35.3423 126.017C36.4599 125.968 37.5759 126.276 38.6903 126.942C39.8047 127.607 40.8588 128.678 41.8527 130.155L47.1121 137.971ZM41.8358 136.44L39.3044 132.678C38.4501 131.409 37.5927 130.657 36.7323 130.423C35.8614 130.188 35.0426 130.328 34.2758 130.844C33.7038 131.229 33.2836 131.717 33.0151 132.308C32.7403 132.904 32.6465 133.552 32.7336 134.251C32.8143 134.955 33.0979 135.668 33.5843 136.391L36.1791 140.247L41.8358 136.44ZM33.6619 141.941L31.3335 138.481C30.9275 137.877 30.4517 137.407 29.906 137.072C29.3541 136.74 28.7808 136.573 28.1862 136.572C27.581 136.568 26.9956 136.756 26.4299 137.137C25.682 137.64 25.2437 138.319 25.115 139.172C24.9821 140.02 25.2624 140.959 25.9561 141.99L28.3352 145.525L33.6619 141.941Z" fill="#3215E0"/>
<path d="M19.8212 105.92C22.2312 105.228 24.4252 105.086 26.4029 105.495C28.3713 105.899 30.0334 106.746 31.3892 108.035C32.7429 109.317 33.7011 110.938 34.2639 112.896C34.8267 114.855 34.8758 116.74 34.4113 118.553C33.9374 120.36 32.9746 121.961 31.523 123.355C30.062 124.745 28.1301 125.785 25.7273 126.475C23.3172 127.167 21.128 127.312 19.1596 126.908C17.1818 126.499 15.5161 125.653 14.1624 124.371C12.8066 123.082 11.8474 121.458 11.2846 119.499C10.7218 117.54 10.6737 115.659 11.1403 113.853C11.6048 112.041 12.5676 110.44 14.0286 109.051C15.4803 107.656 17.4111 106.613 19.8212 105.92ZM20.9917 109.994C19.2952 110.482 17.9408 111.158 16.9286 112.025C15.907 112.886 15.2315 113.868 14.9022 114.972C14.5657 116.077 14.5721 117.238 14.9215 118.454C15.2709 119.67 15.8817 120.657 16.7538 121.415C17.6186 122.176 18.7136 122.653 20.0385 122.848C21.3542 123.038 22.8602 122.889 24.5567 122.401C26.2532 121.914 27.6123 121.239 28.6339 120.378C29.6462 119.512 30.3206 118.526 30.6571 117.421C30.9864 116.317 30.9763 115.157 30.6269 113.941C30.2776 112.725 29.6704 111.737 28.8056 110.977C27.9335 110.218 26.8396 109.744 25.524 109.555C24.199 109.36 22.6882 109.507 20.9917 109.994Z" fill="#3215E0"/>
<path d="M8.56828 85.9865L8.77969 81.7759L23.9651 82.5383C25.6297 82.6219 27.074 83.0888 28.298 83.9391C29.5225 84.7819 30.4548 85.9286 31.095 87.3792C31.7276 88.8294 31.9964 90.5003 31.9015 92.3918C31.8061 94.291 31.3711 95.9303 30.5964 97.3098C29.8141 98.689 28.7716 99.7366 27.469 100.452C26.1663 101.168 24.6826 101.484 23.0181 101.401L7.83265 100.638L8.04406 96.4279L22.8776 97.1726C23.8461 97.2213 24.7193 97.0527 25.4972 96.667C26.2755 96.2737 26.8998 95.6982 27.3702 94.9405C27.8331 94.1825 28.0913 93.2701 28.1448 92.2032C28.1984 91.1364 28.0329 90.2027 27.6483 89.4021C27.2565 88.5935 26.693 87.9584 25.9576 87.4967C25.2223 87.035 24.3704 86.7799 23.4019 86.7312L8.56828 85.9865Z" fill="#3215E0"/>
<path d="M13.6054 75.2301L10.2966 73.9886L16.8197 56.6039L20.1286 57.8455L17.6015 64.5801L36.0821 71.5145L34.6129 75.4297L16.1324 68.4954L13.6054 75.2301Z" fill="#3215E0"/>
<path d="M41.6916 42.4872L44.2537 44.7015L37.4028 52.6285L34.8407 50.4142L41.6916 42.4872Z" fill="#3215E0"/>
<path d="M59.0396 42.563L55.0755 44.6928L51.2784 20.3139L55.8631 17.8507L74.1052 34.4688L70.1411 36.5986L55.9097 23.2436L55.7495 23.3297L59.0396 42.563ZM54.851 34.4548L65.6622 28.6463L67.2649 31.6294L56.4537 37.4379L54.851 34.4548Z" fill="#3215E0"/>
<path d="M74.6349 34.5422L70.3619 11.6651L79.1196 10.0293C80.7728 9.72055 82.1955 9.72456 83.3875 10.0414C84.5857 10.3494 85.54 10.8994 86.2505 11.6915C86.9685 12.4822 87.4332 13.4435 87.6446 14.5755C87.8185 15.5064 87.7886 16.3366 87.555 17.0661C87.3199 17.7882 86.939 18.4104 86.4123 18.9326C85.8856 19.4549 85.2666 19.8749 84.5553 20.1927L84.597 20.4161C85.4171 20.3092 86.2419 20.4133 87.0714 20.7285C87.907 21.0348 88.6396 21.5531 89.2692 22.2832C89.8989 23.0134 90.3222 23.9593 90.5391 25.121C90.7603 26.3051 90.6725 27.4236 90.2757 28.4764C89.8776 29.5219 89.1521 30.4242 88.0994 31.1834C87.0466 31.9426 85.6452 32.4857 83.8952 32.8125L74.6349 34.5422ZM78.1323 30.3053L82.5894 29.4728C84.0936 29.1918 85.1236 28.7027 85.6793 28.0055C86.241 27.2995 86.4371 26.4922 86.2674 25.5837C86.1408 24.906 85.8592 24.3266 85.4225 23.8456C84.9845 23.3571 84.4272 23.0142 83.7507 22.8169C83.0728 22.6121 82.3056 22.5897 81.4492 22.7497L76.8805 23.603L78.1323 30.3053ZM76.3234 20.6205L80.423 19.8548C81.1379 19.7212 81.7577 19.4706 82.2825 19.1029C82.8058 18.7277 83.1861 18.2674 83.4234 17.7222C83.6667 17.1681 83.7257 16.5559 83.6006 15.8857C83.435 14.9995 82.986 14.3281 82.2533 13.8716C81.5281 13.4136 80.5549 13.2987 79.3335 13.5268L75.1446 14.3092L76.3234 20.6205Z" fill="#3215E0"/>
<path d="M114.838 22.1356C114.52 24.6229 113.782 26.6937 112.623 28.3481C111.473 29.9958 110.038 31.187 108.317 31.9217C106.604 32.6574 104.736 32.896 102.715 32.6376C100.693 32.3791 98.9425 31.6779 97.462 30.534C95.9899 29.3835 94.9009 27.8657 94.1949 25.9806C93.4973 24.089 93.307 21.9033 93.6241 19.4235C93.9421 16.9361 94.6761 14.8686 95.8262 13.2208C96.9847 11.5665 98.4206 10.3715 100.134 9.63588C101.854 8.90119 103.726 8.66306 105.747 8.9215C107.768 9.17993 109.516 9.88065 110.989 11.0236C112.469 12.1676 113.558 13.6854 114.256 15.577C114.962 17.4621 115.156 19.6483 114.838 22.1356ZM110.633 21.5981C110.857 19.8472 110.772 18.3355 110.377 17.063C109.99 15.784 109.356 14.7749 108.473 14.0357C107.591 13.289 106.522 12.8355 105.267 12.675C104.012 12.5146 102.864 12.6847 101.822 13.1855C100.782 13.6787 99.9097 14.4952 99.2064 15.6349C98.5117 16.7681 98.0523 18.2101 97.8285 19.961C97.6046 21.7119 97.6859 23.2268 98.0723 24.5059C98.4671 25.7783 99.1056 26.7879 99.9878 27.5346C100.871 28.2738 101.94 28.7236 103.195 28.884C104.45 29.0445 105.598 28.8781 106.638 28.3848C107.68 27.8841 108.548 27.0672 109.243 25.934C109.946 24.7943 110.41 23.349 110.633 21.5981Z" fill="#3215E0"/>
<path d="M137.398 19.4905L141.183 21.347L134.488 34.9981C133.754 36.4944 132.755 37.6371 131.491 38.4261C130.233 39.2183 128.811 39.6223 127.226 39.6378C125.644 39.6465 124.002 39.2339 122.302 38.3999C120.595 37.5626 119.26 36.5158 118.298 35.2594C117.34 33.9962 116.789 32.6249 116.646 31.1454C116.502 29.6659 116.797 28.1779 117.531 26.6816L124.227 13.0305L128.012 14.8869L121.472 28.2217C121.045 29.0923 120.855 29.9611 120.902 30.8281C120.956 31.6985 121.239 32.4993 121.749 33.2306C122.263 33.9551 122.999 34.5525 123.958 35.0229C124.917 35.4932 125.84 35.7098 126.728 35.6725C127.625 35.6317 128.431 35.3647 129.146 34.8713C129.86 34.3779 130.431 33.6959 130.858 32.8253L137.398 19.4905Z" fill="#3215E0"/>
<path d="M145.436 28.4218L147.88 25.8689L161.293 38.7093L158.849 41.2621L153.653 36.2879L140.003 50.5461L136.982 47.6543L150.632 33.396L145.436 28.4218Z" fill="#3215E0"/>
<path d="M164.499 66.9917L161.458 68.4828L156.845 59.076L159.885 57.5849L164.499 66.9917Z" fill="#3215E0"/>
<path d="M157.681 83.1932L157.3 78.7094L181.183 84.9007L181.624 90.0866L159.13 100.234L158.749 95.7501L176.656 87.9887L176.64 87.8076L157.681 83.1932ZM166.786 82.567L167.826 94.7956L164.452 95.0826L163.412 82.854L166.786 82.567Z" fill="#3215E0"/>
</svg>
