<svg width="50" height="50" viewBox="0 0 50 50" fill="none" xmlns="http://www.w3.org/2000/svg">
<path d="M14.5951 0C17.3451 0 20.0107 0.771875 22.3076 2.19375C25.7382 1.82794 29.2072 2.23229 32.4617 3.37732C35.7163 4.52235 38.6743 6.3792 41.1201 8.8125C43.2648 10.9503 44.9669 13.4902 46.1289 16.2866C47.2909 19.083 47.89 22.0811 47.8919 25.1094C47.8919 26.1865 47.8169 27.2552 47.6669 28.3156C48.8929 30.4916 49.5385 32.9462 49.5419 35.4438C49.5428 37.3572 49.165 39.2518 48.4302 41.0185C47.6954 42.7852 46.6182 44.389 45.2607 45.7375C43.9039 47.0912 42.2937 48.1643 40.5222 48.8957C38.7506 49.6271 36.8523 50.0023 34.9357 50C32.3107 50 29.7544 49.2937 27.5294 47.9875C24.0543 48.4031 20.5302 48.0266 17.2213 46.8863C13.9123 45.746 10.9045 43.8714 8.42319 41.4031C6.27884 39.2656 4.57698 36.7263 3.41499 33.9305C2.253 31.1346 1.65368 28.1371 1.65132 25.1094C1.65132 23.974 1.73465 22.8479 1.90132 21.7312C0.324732 18.9626 -0.296909 15.752 0.132316 12.5949C0.561541 9.43786 2.01778 6.50978 4.27632 4.2625C7.01615 1.53382 10.7282 0.00124429 14.5951 0ZM15.9919 21.9063C16.5544 22.8719 17.3357 23.6937 18.2701 24.3094C19.5071 25.1207 20.8232 25.8044 22.1982 26.35C23.7336 26.9917 24.9263 27.5365 25.7763 27.9844C26.4919 28.3344 27.1419 28.8094 27.6982 29.3844C28.1201 29.8281 28.3544 30.4187 28.3544 31.0344C28.3725 31.4671 28.287 31.898 28.1049 32.291C27.9228 32.684 27.6494 33.0278 27.3076 33.2938C26.3982 33.9063 25.3076 34.1969 24.2138 34.1188C23.0894 34.1331 21.9742 33.9139 20.9388 33.475C20.3777 33.2263 19.8233 32.9627 19.2763 32.6844C18.7103 32.3858 18.0818 32.2252 17.4419 32.2156C16.8691 32.1928 16.3091 32.3895 15.8763 32.7656C15.6697 32.962 15.5082 33.2009 15.403 33.4659C15.2978 33.7308 15.2514 34.0154 15.2669 34.3C15.2547 34.8388 15.4169 35.3671 15.7294 35.8063C16.1073 36.2855 16.5965 36.6652 17.1544 36.9125C19.3323 37.8584 21.694 38.3058 24.0669 38.2219C25.7946 38.2531 27.5138 37.9726 29.1419 37.3937C30.4912 36.9142 31.6664 36.0426 32.5169 34.8906C33.3513 33.6719 33.7732 32.2188 33.7232 30.7438C33.7541 29.5386 33.4525 28.3481 32.8513 27.3031C32.242 26.3084 31.4177 25.4627 30.4388 24.8281C29.2028 24.0259 27.8888 23.3506 26.5169 22.8125C26.3709 22.7404 26.2194 22.6798 26.0638 22.6313C24.9945 22.1982 23.9388 21.7324 22.8982 21.2344C22.2655 20.9394 21.6933 20.5293 21.2107 20.025C20.8049 19.5966 20.5809 19.0276 20.5857 18.4375C20.564 17.9874 20.6644 17.5399 20.8762 17.1421C21.0879 16.7444 21.4033 16.4113 21.7888 16.1781C22.7014 15.6341 23.7521 15.366 24.8138 15.4062C25.6263 15.3969 26.4388 15.5 27.2263 15.7063C28.0847 15.9542 28.9201 16.2594 29.7326 16.6219C30.0607 16.775 30.4201 16.8562 30.7826 16.8594C31.0471 16.8659 31.3099 16.8163 31.5539 16.714C31.7979 16.6117 32.0175 16.4589 32.1982 16.2656C32.5807 15.8421 32.7826 15.2859 32.7607 14.7156C32.7692 14.1719 32.5805 13.6435 32.2294 13.2281C31.7466 12.7263 31.1509 12.3471 30.4919 12.1219C29.7751 11.8587 29.034 11.6671 28.2794 11.55C27.2238 11.3778 26.1553 11.2963 25.0857 11.3063C23.451 11.294 21.8267 11.5668 20.2857 12.1125C18.8671 12.5894 17.6009 13.4349 16.6169 14.5625C15.6668 15.683 15.1657 17.1159 15.2107 18.5844C15.1794 19.7406 15.4482 20.8844 15.9919 21.9063Z" fill="#414141"/>
</svg>
